<svg width="216" height="182" viewBox="0 0 216 182" fill="none" xmlns="http://www.w3.org/2000/svg">
<path d="M193.75 91C193.75 141.258 153.008 182 102.75 182C52.4921 182 11.75 141.258 11.75 91C11.75 40.7421 52.4921 0 102.75 0C153.008 0 193.75 40.7421 193.75 91Z" fill="url(#paint0_linear_1_14)"/>
<path d="M187.784 58.5245C186.217 118.234 137.217 165.418 77.1296 165.418C65.8215 165.418 54.9099 163.721 44.6355 160.567C60.3988 173.663 80.6547 181.538 102.75 181.538C153.008 181.538 193.75 140.795 193.75 90.5376C193.75 78.9924 191.706 68.6868 187.784 58.5245Z" fill="url(#paint1_linear_1_14)"/>
<path d="M153.44 15.4138C161.006 20.5096 167.531 26.4227 173.25 33.5C164.655 33.4167 157.912 33.5709 150.623 33.3944C133.113 32.9705 117.793 32.5997 97.0726 33.8283C80.6882 37.4561 73.2688 50.7446 72.8575 65.1418C72.6158 73.6016 79.8121 88.3247 108.931 101.123C118.823 105.337 124.19 114.545 123.659 123.895C123.115 133.48 116.458 141.982 105.473 144.634C101.94 145.486 95.9517 145.748 89.5684 145.851C82.7734 145.961 74.2873 145.887 65.0112 145.744C59.4401 145.657 53.579 145.546 47.5911 145.433L47.5797 145.432L47.5779 145.432C41.8534 145.324 35.5637 145.093 29.75 145C25.6066 139.408 22.5383 133.445 19.75 126.974C29.1419 127.079 38.8318 127.263 48.125 127.439C54.0695 127.552 59.8517 127.662 65.2896 127.746C74.5421 127.889 82.7864 127.958 89.2771 127.853C96.1795 127.742 100.032 127.43 101.249 127.136C103.175 126.671 104.206 125.867 104.757 125.218C105.33 124.543 105.639 123.737 105.688 122.874C105.781 121.245 104.922 118.971 101.854 117.674C101.817 117.658 101.78 117.642 101.743 117.625C70.1448 103.752 54.3065 84.1697 54.8648 64.6278C55.4485 44.1974 66.8555 21.6314 94.0576 16.0674C94.4728 15.9824 94.8935 15.9269 95.3166 15.9013C117.066 14.5829 133.764 14.9799 152.01 15.4138C152.715 15.4306 152.73 15.397 153.44 15.4138Z" fill="#11192C"/>
<path d="M30.75 136H9.75" stroke="#11192C" stroke-width="18" stroke-linecap="round" stroke-linejoin="round"/>
<path d="M188.044 59H108.157C106.857 59 106.033 59.3668 105.432 59.8172C104.76 60.3218 104.096 61.1506 103.624 62.3164C102.52 65.0424 103.209 67.2828 103.685 67.8777L103.718 67.9187L103.734 67.9396C105.3 69.9329 108.297 72.1198 112.916 74.6953C114.965 75.8383 117.102 76.9365 119.358 78.0958L119.898 78.3736C122.284 79.6005 124.824 80.9146 127.177 82.2809C136.072 87.4466 156.601 101.206 154.121 128.806C152.336 148.673 136.165 166.124 116.316 169.846C116.301 169.849 116.287 169.851 116.272 169.854C116.259 169.856 116.246 169.859 116.234 169.861L116.199 169.867C109.544 171.024 98.4537 171.325 85.3863 171.3C77.5362 171.285 68.6773 171.148 59.1698 170.956C50.4787 166.219 42.3403 159.715 35.6575 152.519C36.6575 152.5 37.853 152.479 38.8642 152.502L39.5899 152.519L39.5913 152.519C56.7545 152.914 72.5089 153.276 85.4204 153.3C98.7186 153.325 108.194 152.978 113.057 152.143C125.181 149.841 135.151 138.794 136.193 127.194C137.643 111.06 126.243 102.553 118.138 97.8464C116.24 96.7445 114.093 95.629 111.667 94.3812L111.085 94.082C108.882 92.9503 106.479 91.7156 104.149 90.4161C99.2769 87.6992 93.537 84.0814 89.6037 79.0899C84.1053 72.1875 84.0494 62.6965 86.9407 55.5586C90.0323 47.9263 97.288 41 108.157 41H178.702C182.24 46.3693 185.251 51.7436 187.6 57.8255C187.605 57.6822 187.582 57.9306 187.586 57.7871C187.741 58.19 187.894 58.5943 188.044 59Z" fill="#11192C"/>
<path d="M174.25 50H205.25" stroke="#11192C" stroke-width="18" stroke-linecap="round" stroke-linejoin="round"/>
<path d="M156.75 77H166.75M169.75 91.5H180.25M193.75 91.5H210.25" stroke="#11192C" stroke-width="10" stroke-linecap="round" stroke-linejoin="round"/>
<defs>
<linearGradient id="paint0_linear_1_14" x1="72.75" y1="7.5" x2="149.25" y2="171" gradientUnits="userSpaceOnUse">
<stop stop-color="#F8D033"/>
<stop offset="0.485" stop-color="#FFC022"/>
<stop offset="1" stop-color="#EA830C"/>
</linearGradient>
<linearGradient id="paint1_linear_1_14" x1="72.1034" y1="7.07775" x2="149.012" y2="171.451" gradientUnits="userSpaceOnUse">
<stop offset="1" stop-color="#EA830C"/>
</linearGradient>
</defs>
</svg>
